<svg width="20" height="20" viewBox="0 0 20 20" fill="none" xmlns="http://www.w3.org/2000/svg">
<path d="M10 0C4.47708 0 0 4.47708 0 10C0 15.5229 4.47708 20 10 20C15.5229 20 20 15.5229 20 10C20 4.47708 15.5229 0 10 0ZM4.66667 6.875L15.3333 6.875C15.749 6.875 15.5594 7.40833 15.3333 7.54479C15.1073 7.68021 10.5281 9.57292 10.4104 9.64271C10.2927 9.7125 10.1427 9.74687 9.99063 9.74687C9.84428 9.74987 9.69976 9.71392 9.57187 9.64271L4.66667 7.54479C4.44062 7.40833 4.25208 6.875 4.66667 6.875ZM15.3333 13.3333C15.3333 13.5521 15.0708 13.8542 14.8708 13.8542H10L5.12917 13.8542C4.92917 13.8542 4.66667 13.5521 4.66667 13.3333V8.80625C4.66667 8.71042 4.66458 8.58646 4.84583 8.69167L9.57187 10.7896C9.69749 10.8664 9.84367 10.9027 9.99063 10.8937C10.1427 10.8937 10.2531 10.8823 10.4104 10.7896L15.1542 8.55208C15.3354 8.44583 15.3333 8.57083 15.3333 8.66667L15.3333 13.3333Z" fill="#282828"/>
</svg>
