<svg width="20" height="20" viewBox="0 0 20 20" fill="none" xmlns="http://www.w3.org/2000/svg">
<g clip-path="url(#clip0_59_121)">
<path d="M10.0049 0.151367C5.89256 0.151367 4.68987 0.155609 4.45609 0.175003C3.61218 0.245152 3.08704 0.378027 2.51494 0.662867C2.07404 0.8818 1.72633 1.13558 1.38316 1.49133C0.758175 2.14009 0.379399 2.93825 0.242282 3.88701C0.175617 4.3476 0.156224 4.44154 0.152285 6.7942C0.15077 7.57842 0.152285 8.61051 0.152285 9.99486C0.152285 14.1038 0.15683 15.3053 0.176526 15.5386C0.244706 16.3598 0.37349 16.8765 0.646209 17.4416C1.16741 18.5234 2.16283 19.3355 3.33552 19.6385C3.74157 19.743 4.19004 19.8006 4.76578 19.8279C5.00971 19.8385 7.496 19.8461 9.9838 19.8461C12.4716 19.8461 14.9594 19.843 15.1973 19.8309C15.8639 19.7996 16.251 19.7476 16.6791 19.637C17.8593 19.3325 18.8366 18.5325 19.3684 17.4355C19.6358 16.884 19.7714 16.3477 19.8327 15.5694C19.8461 15.3997 19.8517 12.6942 19.8517 9.99228C19.8517 7.28994 19.8456 4.58941 19.8323 4.41972C19.7702 3.62884 19.6346 3.09704 19.3585 2.53493C19.132 2.07479 18.8805 1.73117 18.5154 1.37981C17.8637 0.757409 17.0668 0.378633 16.1171 0.241667C15.657 0.175154 15.5653 0.155458 13.2108 0.151367H10.0049Z" fill="#282828"/>
<path d="M10.0003 2.72705C8.02519 2.72705 7.77732 2.73569 7.00159 2.77099C6.22737 2.80644 5.6989 2.92901 5.23649 3.10886C4.75817 3.29461 4.35243 3.54309 3.9482 3.94747C3.54366 4.3517 3.29519 4.75744 3.10883 5.23561C2.92853 5.69817 2.80581 6.22679 2.77096 7.00071C2.73626 7.77644 2.72717 8.02447 2.72717 9.99956C2.72717 11.9746 2.73596 12.2218 2.77111 12.9975C2.80672 13.7717 2.92929 14.3002 3.10898 14.7626C3.29488 15.2409 3.54336 15.6467 3.94774 16.0509C4.35182 16.4554 4.75757 16.7045 5.23558 16.8903C5.6983 17.0701 6.22692 17.1927 7.00098 17.2281C7.77672 17.2634 8.02444 17.2721 9.99938 17.2721C11.9746 17.2721 12.2217 17.2634 12.9975 17.2281C13.7717 17.1927 14.3008 17.0701 14.7635 16.8903C15.2416 16.7045 15.6468 16.4554 16.0509 16.0509C16.4554 15.6467 16.7039 15.2409 16.8902 14.7627C17.069 14.3002 17.1917 13.7716 17.2281 12.9976C17.2629 12.2219 17.272 11.9746 17.272 9.99956C17.272 8.02447 17.2629 7.77659 17.2281 7.00086C17.1917 6.22664 17.069 5.69817 16.8902 5.23576C16.7039 4.75744 16.4554 4.3517 16.0509 3.94747C15.6463 3.54294 15.2418 3.29446 14.763 3.10886C14.2994 2.92901 13.7706 2.80644 12.9964 2.77099C12.2207 2.73569 11.9737 2.72705 9.99801 2.72705H10.0003ZM9.34788 4.03762C9.54151 4.03731 9.75757 4.03762 10.0003 4.03762C11.942 4.03762 12.1722 4.04459 12.939 4.07943C13.6481 4.11186 14.0329 4.23034 14.2892 4.32988C14.6286 4.4617 14.8706 4.61927 15.125 4.8738C15.3795 5.12834 15.5371 5.37076 15.6692 5.71014C15.7687 5.96619 15.8874 6.35103 15.9197 7.0601C15.9545 7.82674 15.9621 8.05704 15.9621 9.99789C15.9621 11.9387 15.9545 12.169 15.9197 12.9357C15.8872 13.6447 15.7687 14.0296 15.6692 14.2856C15.5374 14.625 15.3795 14.8667 15.125 15.1211C14.8704 15.3756 14.6288 15.5332 14.2892 15.665C14.0332 15.765 13.6481 15.8832 12.939 15.9156C12.1723 15.9504 11.942 15.958 10.0003 15.958C8.05838 15.958 7.82823 15.9504 7.06159 15.9156C6.35252 15.8829 5.96768 15.7644 5.71117 15.6648C5.37179 15.533 5.12937 15.3755 4.87484 15.1209C4.6203 14.8664 4.46273 14.6246 4.33061 14.285C4.23107 14.029 4.11243 13.6441 4.08016 12.9351C4.04531 12.1684 4.03835 11.9381 4.03835 9.99607C4.03835 8.05401 4.04531 7.82493 4.08016 7.05828C4.11259 6.34921 4.23107 5.96438 4.33061 5.70802C4.46242 5.36864 4.6203 5.12622 4.87484 4.87168C5.12937 4.61714 5.37179 4.45957 5.71117 4.32746C5.96753 4.22746 6.35252 4.10928 7.06159 4.07671C7.73248 4.0464 7.99247 4.03731 9.34788 4.0358V4.03762ZM13.8823 5.24516C13.4005 5.24516 13.0096 5.6356 13.0096 6.11755C13.0096 6.59936 13.4005 6.99025 13.8823 6.99025C14.3641 6.99025 14.755 6.59936 14.755 6.11755C14.755 5.63575 14.3641 5.24485 13.8823 5.24485V5.24516ZM10.0003 6.26482C7.93777 6.26482 6.26555 7.93704 6.26555 9.99956C6.26555 12.0621 7.93777 13.7335 10.0003 13.7335C12.0628 13.7335 13.7344 12.0621 13.7344 9.99956C13.7344 7.93704 12.0628 6.26482 10.0003 6.26482ZM10.0003 7.57539C11.339 7.57539 12.4245 8.66066 12.4245 9.99956C12.4245 11.3383 11.339 12.4237 10.0003 12.4237C8.66139 12.4237 7.57612 11.3383 7.57612 9.99956C7.57612 8.66066 8.66139 7.57539 10.0003 7.57539Z" fill="white"/>
</g>
<defs>
<clipPath id="clip0_59_121">
<rect width="20" height="19.9994" fill="white"/>
</clipPath>
</defs>
</svg>
