<svg width="20" height="20" viewBox="0 0 20 20" fill="none" xmlns="http://www.w3.org/2000/svg">
<path d="M14.9722 0H5.0119C2.25218 0 0 2.25218 0 5.0119V14.9881C0 17.732 2.25218 19.9841 5.0119 19.9841H14.9881C17.7478 19.9841 20 17.732 20 14.9722V5.0119C19.9841 2.25218 17.732 0 14.9722 0ZM6.66138 16.1776H3.8065V7.93021H6.66138V16.1776ZM5.21808 6.66138C4.4092 6.66138 3.75892 6.0111 3.75892 5.20222C3.75892 4.39334 4.4092 3.74306 5.21808 3.74306C6.02696 3.74306 6.67724 4.39334 6.67724 5.20222C6.66138 6.0111 6.0111 6.66138 5.21808 6.66138ZM16.1935 16.1776H16.1776H13.7986V12.1808C13.7986 11.2133 13.6717 9.97621 12.3553 9.97621C11.0071 9.97621 10.7851 11.023 10.7851 12.1174V16.1776H8.40603V7.93021H10.6265V9.04044H10.6899C11.0389 8.40603 11.8477 7.91435 13.1166 7.91435C15.7335 7.91435 16.1935 9.4211 16.1935 11.6574V16.1776Z" fill="#282828"/>
</svg>
