<svg width="20" height="20" viewBox="0 0 20 20" fill="none" xmlns="http://www.w3.org/2000/svg">
<path d="M9.99994 0C4.47724 0 0 4.47712 0 9.99982C0 15.5228 4.47724 19.9995 9.99994 19.9995C15.5232 19.9995 20 15.5228 20 9.99982C20 4.47748 15.5232 0.000477646 9.99982 0.000477646L9.99994 0ZM14.5858 14.4226C14.4067 14.7164 14.0222 14.8095 13.7285 14.6292C11.3806 13.1951 8.42489 12.8703 4.94403 13.6655C4.6086 13.742 4.27424 13.5318 4.19782 13.1962C4.12104 12.8607 4.33037 12.5263 4.66663 12.4499C8.47588 11.5793 11.7434 11.9544 14.3793 13.5652C14.673 13.7455 14.7662 14.1289 14.5858 14.4226ZM15.8098 11.6994C15.5841 12.0666 15.1041 12.1824 14.7375 11.9567C12.0495 10.3042 7.95214 9.82572 4.77279 10.7908C4.36046 10.9154 3.92496 10.683 3.79982 10.2714C3.67563 9.85903 3.90812 9.42437 4.31974 9.29899C7.95142 8.19705 12.4663 8.73083 15.5531 10.6277C15.9197 10.8534 16.0355 11.3333 15.8098 11.6994ZM15.9149 8.86409C12.692 6.94979 7.37454 6.77378 4.29741 7.7077C3.80328 7.85756 3.28073 7.57862 3.13099 7.08449C2.98125 6.59012 3.25995 6.06793 3.75444 5.91771C7.28677 4.84539 13.1589 5.05257 16.8695 7.25537C17.3149 7.51915 17.4606 8.09316 17.1967 8.53702C16.934 8.98147 16.3584 9.12799 15.9154 8.86409H15.9149Z" fill="#282828"/>
</svg>
