<svg width="539" height="583" viewBox="0 0 539 583" fill="none" xmlns="http://www.w3.org/2000/svg">
<path fill-rule="evenodd" clip-rule="evenodd" d="M247.77 1.10115C324.655 6.28703 392.889 47.3098 444.753 104.304C494.01 158.433 512.168 228.629 520.937 301.288C531.4 387.992 563.199 493.326 498.825 552.343C434.699 611.133 332.73 570.436 247.77 551.725C185.517 538.015 129.48 509.547 87.3372 461.72C48.0777 417.166 36.9643 359.845 27.0942 301.288C14.1049 224.224 -23.9981 138.777 22.291 75.8092C71.0437 9.49046 165.646 -4.43807 247.77 1.10115Z" fill="#6F8670"/>
<path d="M125.948 204.173L126.682 202.334C128.156 203.137 129.718 203.712 131.367 204.058C133.016 204.417 134.661 204.576 136.3 204.535C137.94 204.494 139.574 204.253 141.204 203.812C142.834 203.385 144.371 202.733 145.816 201.856L146.642 203.656C145.119 204.641 143.524 205.415 141.858 205.977C140.192 206.552 138.359 206.864 136.36 206.914C134.374 206.964 132.534 206.743 130.841 206.251C129.149 205.774 127.518 205.081 125.948 204.173Z" fill="white"/>
<path d="M314.953 195.974L315.568 194.092C317.09 194.8 318.685 195.274 320.353 195.514C322.022 195.767 323.673 195.82 325.307 195.675C326.941 195.53 328.556 195.185 330.154 194.641C331.754 194.111 333.247 193.362 334.633 192.396L335.571 194.139C334.115 195.219 332.573 196.093 330.945 196.76C329.319 197.44 327.51 197.868 325.518 198.046C323.539 198.222 321.689 198.119 319.969 197.736C318.249 197.367 316.577 196.78 314.953 195.974Z" fill="white"/>
<path d="M211.183 228.5C218.275 228.5 224.461 229.329 231.509 229.329C238.402 229.329 245.381 226.442 251.007 222.692" stroke="white" stroke-width="3" stroke-linecap="round"/>
</svg>
