<svg width="539" height="583" viewBox="0 0 539 583" fill="none" xmlns="http://www.w3.org/2000/svg">
<path fill-rule="evenodd" clip-rule="evenodd" d="M247.77 1.10115C324.655 6.28703 392.889 47.3098 444.753 104.304C494.01 158.433 512.168 228.629 520.937 301.288C531.4 387.992 563.199 493.326 498.825 552.343C434.699 611.133 332.73 570.436 247.77 551.725C185.517 538.015 129.48 509.547 87.3372 461.72C48.0777 417.166 36.9643 359.845 27.0942 301.288C14.1049 224.224 -23.9981 138.777 22.291 75.8092C71.0437 9.49046 165.646 -4.43807 247.77 1.10115Z" fill="#6F8670"/>
<path d="M141.06 213.26C140.18 213.26 139.353 213.04 138.58 212.6C137.807 212.147 137.187 211.5 136.72 210.66C136.267 209.807 136.04 208.78 136.04 207.58C136.04 206.367 136.267 205.34 136.72 204.5C137.187 203.647 137.807 202.993 138.58 202.54C139.353 202.087 140.18 201.86 141.06 201.86C141.727 201.86 142.36 201.987 142.96 202.24C143.573 202.493 144.113 202.867 144.58 203.36C145.047 203.853 145.413 204.453 145.68 205.16C145.947 205.867 146.08 206.673 146.08 207.58C146.08 208.78 145.847 209.807 145.38 210.66C144.913 211.5 144.3 212.147 143.54 212.6C142.78 213.04 141.953 213.26 141.06 213.26ZM141.06 211.74C141.687 211.74 142.233 211.567 142.7 211.22C143.18 210.873 143.553 210.387 143.82 209.76C144.087 209.133 144.22 208.407 144.22 207.58C144.22 206.74 144.087 206.007 143.82 205.38C143.553 204.753 143.18 204.267 142.7 203.92C142.233 203.573 141.687 203.4 141.06 203.4C140.433 203.4 139.88 203.573 139.4 203.92C138.933 204.267 138.567 204.753 138.3 205.38C138.047 206.007 137.92 206.74 137.92 207.58C137.92 208.407 138.047 209.133 138.3 209.76C138.567 210.387 138.933 210.873 139.4 211.22C139.88 211.567 140.433 211.74 141.06 211.74Z" fill="white"/>
<path d="M330.06 204.26C329.18 204.26 328.353 204.04 327.58 203.6C326.807 203.147 326.187 202.5 325.72 201.66C325.267 200.807 325.04 199.78 325.04 198.58C325.04 197.367 325.267 196.34 325.72 195.5C326.187 194.647 326.807 193.993 327.58 193.54C328.353 193.087 329.18 192.86 330.06 192.86C330.727 192.86 331.36 192.987 331.96 193.24C332.573 193.493 333.113 193.867 333.58 194.36C334.047 194.853 334.413 195.453 334.68 196.16C334.947 196.867 335.08 197.673 335.08 198.58C335.08 199.78 334.847 200.807 334.38 201.66C333.913 202.5 333.3 203.147 332.54 203.6C331.78 204.04 330.953 204.26 330.06 204.26ZM330.06 202.74C330.687 202.74 331.233 202.567 331.7 202.22C332.18 201.873 332.553 201.387 332.82 200.76C333.087 200.133 333.22 199.407 333.22 198.58C333.22 197.74 333.087 197.007 332.82 196.38C332.553 195.753 332.18 195.267 331.7 194.92C331.233 194.573 330.687 194.4 330.06 194.4C329.433 194.4 328.88 194.573 328.4 194.92C327.933 195.267 327.567 195.753 327.3 196.38C327.047 197.007 326.92 197.74 326.92 198.58C326.92 199.407 327.047 200.133 327.3 200.76C327.567 201.387 327.933 201.873 328.4 202.22C328.88 202.567 329.433 202.74 330.06 202.74Z" fill="white"/>
<path d="M211.183 228.5C218.275 228.5 224.461 229.329 231.509 229.329C238.402 229.329 245.381 226.442 251.007 222.692" stroke="white" stroke-width="3" stroke-linecap="round"/>
</svg>
